<svg width="33" height="32" viewBox="0 0 33 32" fill="none" xmlns="http://www.w3.org/2000/svg">
<path d="M24.2354 2.19869C23.9727 0.945985 22.8321 0 21.4677 0C21.1559 0 20.9028 0.245703 20.9028 0.549672C20.9028 0.85364 21.1559 1.09934 21.4677 1.09934C22.4022 1.09934 23.1626 1.8392 23.1626 2.74836C23.1626 3.65752 22.4022 4.39738 21.4677 4.39738C21.1559 4.39738 20.9028 4.64308 20.9028 4.94705C20.9028 5.25102 21.1559 5.49672 21.4677 5.49672C22.8315 5.49672 23.9727 4.55073 24.2354 3.29803H31.6367V8.24508H1.12988V3.29803H9.03905H10.7339C11.0457 3.29803 11.2988 3.05233 11.2988 2.74836C11.2988 2.44439 11.0457 2.19869 10.7339 2.19869H9.70794C9.94183 1.55997 10.5633 1.09934 11.2988 1.09934C12.2332 1.09934 12.9936 1.8392 12.9936 2.74836C12.9936 3.65752 12.2332 4.39738 11.2988 4.39738C10.987 4.39738 10.7339 4.64308 10.7339 4.94705C10.7339 5.25102 10.987 5.49672 11.2988 5.49672C12.8564 5.49672 14.1235 4.2638 14.1235 2.74836C14.1235 1.23291 12.8564 0 11.2988 0C9.93505 0 8.79387 0.945985 8.53117 2.19869H0V9.34442V31.3313H32.7666V9.34442V2.19869H24.2354ZM31.6367 30.232H1.12988V9.34442H31.6367V30.232Z" fill="white"/>
<path d="M14.6884 1.09934C15.6229 1.09934 16.3833 1.8392 16.3833 2.74836C16.3833 3.65752 15.6229 4.39738 14.6884 4.39738C14.3766 4.39738 14.1235 4.64308 14.1235 4.94705C14.1235 5.25102 14.3766 5.49672 14.6884 5.49672C16.246 5.49672 17.5132 4.2638 17.5132 2.74836C17.5132 1.23291 16.246 0 14.6884 0C14.3766 0 14.1235 0.245703 14.1235 0.549672C14.1235 0.85364 14.3766 1.09934 14.6884 1.09934Z" fill="white"/>
<path d="M18.0781 1.09934C19.0125 1.09934 19.7729 1.8392 19.7729 2.74836C19.7729 3.65752 19.0125 4.39738 18.0781 4.39738C17.7662 4.39738 17.5132 4.64308 17.5132 4.94705C17.5132 5.25102 17.7662 5.49672 18.0781 5.49672C19.6356 5.49672 20.9028 4.2638 20.9028 2.74836C20.9028 1.23291 19.6356 0 18.0781 0C17.7662 0 17.5132 0.245703 17.5132 0.549672C17.5132 0.85364 17.7662 1.09934 18.0781 1.09934Z" fill="white"/>
<path d="M5.08446 13.7416H17.5132C17.825 13.7416 18.0781 13.4959 18.0781 13.1919C18.0781 12.8879 17.825 12.6422 17.5132 12.6422H5.08446C4.77262 12.6422 4.51952 12.8879 4.51952 13.1919C4.51952 13.4959 4.77262 13.7416 5.08446 13.7416Z" fill="white"/>
<path d="M27.6821 21.4372H19.208C18.8961 21.4372 18.643 21.6829 18.643 21.9869C18.643 22.2909 18.8961 22.5366 19.208 22.5366H27.6821C27.9939 22.5366 28.247 22.2909 28.247 21.9869C28.247 21.6829 27.9939 21.4372 27.6821 21.4372Z" fill="white"/>
<path d="M5.08446 18.1395H10.7339C11.0457 18.1395 11.2988 17.8938 11.2988 17.5898C11.2988 17.2859 11.0457 17.0402 10.7339 17.0402H5.08446C4.77262 17.0402 4.51952 17.2859 4.51952 17.5898C4.51952 17.8938 4.77262 18.1395 5.08446 18.1395Z" fill="white"/>
<path d="M27.6821 25.8347H22.0327C21.7208 25.8347 21.4677 26.0805 21.4677 26.3844C21.4677 26.6884 21.7208 26.9341 22.0327 26.9341H27.6821C27.9939 26.9341 28.247 26.6884 28.247 26.3844C28.247 26.0805 27.9939 25.8347 27.6821 25.8347Z" fill="white"/>
<path d="M15.8183 17.5898C15.8183 17.8938 16.0714 18.1395 16.3833 18.1395H24.8574C25.1692 18.1395 25.4223 17.8938 25.4223 17.5898C25.4223 17.2859 25.1692 17.0402 24.8574 17.0402H16.3833C16.0714 17.0402 15.8183 17.2859 15.8183 17.5898Z" fill="white"/>
<path d="M13.9597 17.9799C14.0614 17.8755 14.1235 17.7326 14.1235 17.5896C14.1235 17.4462 14.0614 17.3033 13.9597 17.1994C13.7506 16.996 13.3665 16.996 13.1575 17.1994C13.0558 17.3033 12.9936 17.4462 12.9936 17.5896C12.9936 17.7326 13.0558 17.8755 13.1575 17.9799C13.2648 18.0838 13.4117 18.1393 13.5586 18.1393C13.7055 18.1393 13.8523 18.0838 13.9597 17.9799Z" fill="white"/>
<path d="M7.34422 21.9869C7.34422 22.2909 7.59732 22.5366 7.90916 22.5366H16.3833C16.6951 22.5366 16.9482 22.2909 16.9482 21.9869C16.9482 21.6829 16.6951 21.4372 16.3833 21.4372H7.90916C7.59732 21.4372 7.34422 21.6829 7.34422 21.9869Z" fill="white"/>
<path d="M5.08446 22.5366C5.23135 22.5366 5.37823 22.4761 5.48557 22.3772C5.58726 22.2727 5.64941 22.1298 5.64941 21.9869C5.64941 21.8434 5.58726 21.7005 5.48557 21.6021C5.27654 21.3932 4.89238 21.3932 4.68336 21.5966C4.58167 21.7005 4.51952 21.8434 4.51952 21.9869C4.51952 22.1298 4.58167 22.2727 4.68336 22.3772C4.7907 22.4761 4.93193 22.5366 5.08446 22.5366Z" fill="white"/>
<path d="M27.6821 18.1393C27.829 18.1393 27.9759 18.0838 28.0832 17.9799C28.1905 17.8755 28.247 17.7326 28.247 17.5896C28.247 17.4462 28.1905 17.3033 28.0832 17.1994C27.8685 16.996 27.49 16.996 27.281 17.1994C27.1793 17.3033 27.1171 17.4462 27.1171 17.5896C27.1171 17.7326 27.1793 17.8755 27.281 17.9799C27.3883 18.0838 27.5352 18.1393 27.6821 18.1393Z" fill="white"/>
<path d="M19.208 25.8347H5.08446C4.77262 25.8347 4.51952 26.0805 4.51952 26.3844C4.51952 26.6884 4.77262 26.9341 5.08446 26.9341H19.208C19.5198 26.9341 19.7729 26.6884 19.7729 26.3844C19.7729 26.0805 19.5198 25.8347 19.208 25.8347Z" fill="white"/>
</svg>
