<svg width="33" height="33" viewBox="0 0 33 33" fill="none" xmlns="http://www.w3.org/2000/svg">
<path fill-rule="evenodd" clip-rule="evenodd" d="M3.25023 1.38187C3.25023 1.17097 3.42846 1 3.64832 1H32.3115C32.5313 1 32.7096 1.17097 32.7096 1.38187V29.004C32.7096 29.2149 32.5313 29.3858 32.3115 29.3858C32.0916 29.3858 31.9134 29.2149 31.9134 29.004V1.76374H3.64832C3.42846 1.76374 3.25023 1.59277 3.25023 1.38187Z" fill="white" stroke="white" stroke-width="0.5"/>
<path d="M1.12724 7.30404L2.75311 5.67817L2.75311 29.4369L2.75311 29.5619L2.87811 29.5619L3.66803 29.5619L3.79303 29.5619L3.79303 29.4369L3.79303 5.67817L5.4189 7.30404C5.62196 7.5071 5.95117 7.5071 6.15423 7.30404C6.35729 7.10099 6.35729 6.77177 6.15423 6.56871L3.64073 4.05521C3.43768 3.85216 3.10846 3.85216 2.9054 4.05521L0.391904 6.56871C0.188847 6.77177 0.188848 7.10099 0.391903 7.30404L0.391904 7.30404C0.59496 7.5071 0.924179 7.5071 1.12724 7.30404Z" fill="white" stroke="white" stroke-width="0.25"/>
<path d="M25.1261 27.2914L26.7602 28.917L2.87712 28.917H2.75212V29.042V29.8319V29.9569H2.87712L26.7602 29.9569L25.1261 31.5826C24.922 31.7857 24.922 32.1153 25.1261 32.3184C25.3299 32.5211 25.6601 32.5211 25.8639 32.3184L28.3905 29.8049C28.5947 29.6018 28.5947 29.2722 28.3905 29.0691L25.8639 26.5556C25.6601 26.3528 25.3299 26.3528 25.1261 26.5556C24.922 26.7587 24.922 27.0883 25.1261 27.2914Z" fill="white" stroke="white" stroke-width="0.25"/>
<path fill-rule="evenodd" clip-rule="evenodd" d="M14.1624 1.11568C14.3167 1.26992 14.3167 1.51999 14.1624 1.67424L9.42294 6.41373C9.2687 6.56797 9.01862 6.56797 8.86438 6.41373C8.71014 6.25949 8.71014 6.00942 8.86438 5.85518L13.6039 1.11568C13.7581 0.96144 14.0082 0.96144 14.1624 1.11568Z" fill="white" stroke="white" stroke-width="0.5" stroke-linecap="round" stroke-linejoin="round"/>
<path fill-rule="evenodd" clip-rule="evenodd" d="M32.4622 19.942C32.6164 20.0962 32.6164 20.3463 32.4622 20.5005L28.1177 24.8451C27.9634 24.9993 27.7133 24.9993 27.5591 24.8451C27.4049 24.6908 27.4049 24.4408 27.5591 24.2865L31.9036 19.942C32.0579 19.7877 32.308 19.7877 32.4622 19.942Z" fill="white" stroke="white" stroke-width="0.5" stroke-linecap="round" stroke-linejoin="round"/>
<path fill-rule="evenodd" clip-rule="evenodd" d="M20.085 1.11391C20.2402 1.26716 20.2418 1.51723 20.0886 1.67245L9.81965 12.073C9.66639 12.2282 9.41632 12.2298 9.2611 12.0766C9.10588 11.9233 9.10429 11.6732 9.25755 11.518L19.5265 1.11747C19.6797 0.962245 19.9298 0.960652 20.085 1.11391Z" fill="white" stroke="white" stroke-width="0.5" stroke-linecap="round" stroke-linejoin="round"/>
<path fill-rule="evenodd" clip-rule="evenodd" d="M32.5938 13.3589C32.748 13.5131 32.748 13.7632 32.5938 13.9175L22.5882 23.9231C22.4339 24.0773 22.1839 24.0773 22.0296 23.9231C21.8754 23.7688 21.8754 23.5188 22.0296 23.3645L32.0352 13.3589C32.1895 13.2047 32.4396 13.2047 32.5938 13.3589Z" fill="white" stroke="white" stroke-width="0.5" stroke-linecap="round" stroke-linejoin="round"/>
<path fill-rule="evenodd" clip-rule="evenodd" d="M26.4084 1.24901C26.5614 1.40449 26.5593 1.65456 26.4039 1.80755L9.94728 18.0008C9.7918 18.1538 9.54174 18.1518 9.38874 17.9963C9.23575 17.8409 9.23777 17.5908 9.39325 17.4378L25.8498 1.24451C26.0053 1.09152 26.2554 1.09354 26.4084 1.24901Z" fill="white" stroke="white" stroke-width="0.5" stroke-linecap="round" stroke-linejoin="round"/>
<path fill-rule="evenodd" clip-rule="evenodd" d="M32.5939 7.1715C32.7481 7.32574 32.7481 7.57581 32.5939 7.73005L16.0056 24.3183C15.8514 24.4725 15.6013 24.4725 15.4471 24.3183C15.2928 24.1641 15.2928 23.914 15.4471 23.7597L32.0353 7.1715C32.1896 7.01726 32.4396 7.01726 32.5939 7.1715Z" fill="white" stroke="white" stroke-width="0.5" stroke-linecap="round" stroke-linejoin="round"/>
<path fill-rule="evenodd" clip-rule="evenodd" d="M32.3306 1.24675C32.4848 1.40099 32.4848 1.65107 32.3306 1.80531L9.68631 24.4496C9.53207 24.6038 9.282 24.6038 9.12776 24.4496C8.97352 24.2953 8.97352 24.0453 9.12776 23.891L31.772 1.24675C31.9263 1.09251 32.1763 1.09251 32.3306 1.24675Z" fill="white" stroke="white" stroke-width="0.5" stroke-linecap="round" stroke-linejoin="round"/>
</svg>
