<svg width="42" height="35" viewBox="0 0 42 35" fill="none" xmlns="http://www.w3.org/2000/svg">
<path d="M21.3396 24.7974C20.9614 24.7974 20.6526 25.0966 20.6526 25.4684V26.7931C20.6526 27.1649 20.9614 27.4641 21.3396 27.4641C21.7178 27.4641 22.0265 27.1649 22.0265 26.7931V25.4684C22.0265 25.0966 21.7178 24.7974 21.3396 24.7974Z" fill="white" stroke="white" stroke-width="0.1"/>
<path d="M38.0581 15.5196L38.0581 15.5195C37.6069 13.3617 36.5951 11.3276 35.1321 9.63698C33.7237 8.00938 31.9214 6.72811 29.9118 5.92046C29.5828 4.58444 28.8927 3.20682 27.5386 2.16943C26.2205 1.15967 24.8931 0.965018 24.8338 0.956699L24.8338 0.95669C24.6374 0.929396 24.4377 0.986384 24.2872 1.11368C24.1366 1.24101 24.0498 1.42597 24.0498 1.621V4.92454H21.8254C21.236 3.01044 19.4142 1.61243 17.2634 1.61243C15.0652 1.61243 13.2096 3.07238 12.6632 5.0515C9.51519 5.47724 6.61974 6.96796 4.46924 9.28146L4.50166 9.31159L4.46924 9.28146C2.19996 11.723 0.95 14.8838 0.95 18.1816C0.95 25.5712 4.88387 31.5815 6.0891 33.247C6.47046 33.7741 7.09453 34.0883 7.7582 34.0883H10.4692C11.5961 34.0883 12.515 33.1942 12.515 32.0924V31.2908C13.1849 31.3885 13.8649 31.4386 14.5457 31.4386H20.6528V32.0924C20.6528 33.1942 21.5717 34.0883 22.6986 34.0883H25.6765C26.634 34.0883 27.4756 33.4258 27.6767 32.5109L27.9969 31.0543C32.173 30.0528 35.5324 27.1963 37.1959 23.4897H39.6837C40.4359 23.4897 41.05 22.8928 41.05 22.1562V16.8568C41.05 16.5001 40.9075 16.165 40.6493 15.9133C40.3912 15.6617 40.0482 15.5232 39.6838 15.5232H39.6837H39.6837H39.6837H39.6836H39.6836H39.6836H39.6835L38.0592 15.5235C38.0587 15.5222 38.0584 15.5208 38.0581 15.5196ZM39.6762 22.1061H39.6761V22.1475H37.7111C38.0469 21.104 38.2538 20.0081 38.3138 18.8788C38.3337 18.5075 38.0411 18.1929 37.6633 18.1739C37.2857 18.1552 36.9615 18.4379 36.9418 18.8092C36.6746 23.8318 33.1861 28.1253 28.3218 29.5756L29.1936 25.6093C29.2736 25.2456 29.0358 24.8896 28.6656 24.8123C28.2961 24.7348 27.9301 24.9644 27.8503 25.3276L26.3334 32.2291C26.2678 32.5277 25.9919 32.7462 25.6765 32.7462H22.6984C22.3268 32.7462 22.0266 32.4516 22.0266 32.0923V29.4426C22.0266 29.0708 21.7178 28.7716 21.3396 28.7716C20.9614 28.7716 20.6527 29.0708 20.6527 29.4426V30.0964H14.5455C13.8637 30.0964 13.1831 30.0405 12.5148 29.9317V25.4682C12.5148 25.0964 12.2061 24.7972 11.8279 24.7972C11.4497 24.7972 11.1409 25.0964 11.1409 25.4682V32.0924C11.1409 32.4517 10.8407 32.7462 10.4691 32.7462H7.7582C7.53553 32.7462 7.33663 32.6461 7.21107 32.4725L7.21106 32.4725C6.06414 30.8872 2.32391 25.1733 2.32391 18.1815C2.32391 15.2181 3.44692 12.3778 5.48639 10.1836C7.34008 8.18921 9.80923 6.87502 12.5037 6.43286C12.5187 6.82085 12.5834 7.2044 12.695 7.57418H12.5074C12.1292 7.57418 11.8205 7.87341 11.8205 8.24521C11.8205 8.61701 12.1292 8.91624 12.5074 8.91624H22.0191C22.3974 8.91624 22.7061 8.61701 22.7061 8.24521C22.7061 7.87341 22.3974 7.57418 22.0191 7.57418H21.8315C21.9592 7.15163 22.0258 6.71117 22.0266 6.26652H24.0498V7.58274C24.0498 7.95454 24.3585 8.25377 24.7367 8.25377C25.1149 8.25377 25.4237 7.95454 25.4237 7.58274V2.50872C26.0183 2.73792 26.843 3.18639 27.5288 4.04185C28.2404 4.9294 28.8056 6.25881 28.8056 8.24528C28.8056 8.61709 29.1144 8.91631 29.4926 8.91631C29.8708 8.91631 30.1795 8.61709 30.1795 8.24528C30.1795 8.0074 30.1716 7.75754 30.1536 7.49968C31.6527 8.22454 32.9978 9.24962 34.0829 10.5035C35.3977 12.023 36.3068 13.8504 36.712 15.7882C36.8426 16.413 37.4049 16.8657 38.0487 16.8656L39.6762 16.8655V22.1061ZM17.2633 2.95457C19.1334 2.95457 20.6527 4.43776 20.6527 6.25811C20.6527 6.71293 20.5552 7.16121 20.371 7.57433L14.1555 7.57433C13.9714 7.16106 13.8737 6.71292 13.8737 6.25811C13.8737 4.43769 15.3931 2.95457 17.2633 2.95457Z" fill="white" stroke="white" stroke-width="0.1"/>
<path d="M28.9116 15.9596L28.9116 15.9596C29.315 14.9048 30.3808 14.1985 31.5621 14.1985C32.7433 14.1985 33.8093 14.9049 34.2125 15.9596L28.9116 15.9596ZM28.9116 15.9596C28.7784 16.308 28.9605 16.6942 29.3155 16.8233M28.9116 15.9596L29.3155 16.8233M29.3155 16.8233C29.67 16.9523 30.0657 16.7769 30.1986 16.4292L29.3155 16.8233ZM30.1986 16.4292C30.4011 15.8997 30.9479 15.5406 31.562 15.5406C32.1761 15.5406 32.723 15.8997 32.9255 16.4292C33.0289 16.6997 33.2913 16.8656 33.5691 16.8656C33.6488 16.8656 33.7297 16.852 33.8086 16.8233C33.8086 16.8233 33.8086 16.8233 33.8086 16.8233L33.7915 16.7763L30.1986 16.4292Z" fill="white" stroke="white" stroke-width="0.1"/>
<path d="M20.2116 18.5948C19.5601 18.153 18.7201 17.8824 17.9502 17.67V14.5911C18.5451 14.6683 19.0484 14.8406 19.4047 15.0533C19.7758 15.275 19.9733 15.5313 19.9733 15.7598C19.9733 16.1316 20.2821 16.4308 20.6603 16.4308C21.0385 16.4308 21.3472 16.1316 21.3472 15.7598C21.3472 15.1042 20.9732 14.518 20.3589 14.0748C19.754 13.6385 18.9127 13.3374 17.9502 13.2396V13.2136C17.9502 12.8418 17.6414 12.5425 17.2632 12.5425C16.885 12.5425 16.5763 12.8418 16.5763 13.2136V13.2396C15.6138 13.3374 14.7724 13.6385 14.1676 14.0748C13.5533 14.518 13.1792 15.1042 13.1792 15.7598C13.1792 16.6873 13.6508 17.3182 14.3149 17.7686C14.9663 18.2104 15.8063 18.4811 16.5763 18.6934V21.7723C15.9814 21.6952 15.4781 21.5229 15.1218 21.3101C14.7506 21.0884 14.5532 20.8321 14.5532 20.6037C14.5532 20.2319 14.2444 19.9326 13.8662 19.9326C13.488 19.9326 13.1792 20.2319 13.1792 20.6037C13.1792 21.2593 13.5533 21.8454 14.1676 22.2886C14.7724 22.725 15.6138 23.026 16.5763 23.1238V23.1499C16.5763 23.5217 16.885 23.8209 17.2632 23.8209C17.6414 23.8209 17.9502 23.5217 17.9502 23.1499V23.1238C18.9127 23.026 19.754 22.725 20.3589 22.2886C20.9732 21.8454 21.3472 21.2593 21.3472 20.6037C21.3472 19.6761 20.8757 19.0452 20.2116 18.5948ZM16.5763 14.5911V17.2873C15.8286 17.055 15.3248 16.8338 15.0067 16.5924C14.6827 16.3467 14.5532 16.0818 14.5532 15.7598C14.5532 15.5313 14.7506 15.275 15.1218 15.0533C15.4781 14.8406 15.9814 14.6683 16.5763 14.5911ZM19.4047 21.3102C19.0484 21.523 18.545 21.6952 17.9502 21.7724V19.0762C18.6979 19.3085 19.2016 19.5297 19.5198 19.7711C19.8437 20.0168 19.9733 20.2817 19.9733 20.6038C19.9733 20.8322 19.7758 21.0885 19.4047 21.3102Z" fill="white" stroke="white" stroke-width="0.1"/>
</svg>
